<svg viewBox="0 0 400 120" xmlns="http://www.w3.org/2000/svg">
  <!-- Pure black background -->
  <rect width="400" height="120" fill="#000000" rx="8"/>
  
  <!-- Brain icon -->
  <path d="M60 30 C40 30, 30 40, 30 55 C30 70, 40 80, 55 80 C65 80, 70 75, 75 70
           C80 75, 85 80, 95 80 C110 80, 120 70, 120 55 C120 40, 110 30, 90 30
           C85 30, 80 32, 75 35 C70 32, 65 30, 60 30
           M75 35 C80 40, 80 50, 75 55 C70 50, 70 40, 75 35
           M60 40 C50 40, 45 45, 45 55 C45 65, 50 70, 60 70
           M90 40 C100 40, 105 45, 105 55 C105 65, 100 70, 90 70"
        fill="none" stroke="#60a5fa" stroke-width="4"/>
  
  <!-- Gear elements inside brain -->
  <circle cx="55" cy="50" r="6" fill="#60a5fa"/>
  <circle cx="95" cy="50" r="6" fill="#60a5fa"/>
  
  <!-- Text "BrainForge" -->
  <text x="140" y="65" font-family="Arial, sans-serif" font-weight="bold" font-size="36" fill="#ffffff">
    Brain<tspan fill="#60a5fa">Forge</tspan>
  </text>
  
  <!-- Tagline -->
  <text x="140" y="85" font-family="Arial, sans-serif" font-size="12" fill="#94a3b8">
    Forging Tomorrow's Minds
  </text>
</svg>
